<svg viewBox="0 0 16 16" fill="none" xmlns="http://www.w3.org/2000/svg">
 <g>
     <path d="M13.5 3.5C13.5 4.05271 13.0514 4.5 12.5 4.5C11.9486 4.5 11.5 4.05271 11.5 3.5C11.5 2.94729 11.9486 2.5 12.5 2.5C13.0514 2.5 13.5 2.94729 13.5 3.5Z"
           fill="#E2E2E2"/>
     <path d="M7.79092 6C7.60335 5.53689 7.5 5.03059 7.5 4.5C7.5 2.28917 9.29429 0.5 11.5 0.5C13.7057 0.5 15.5 2.28917 15.5 4.5C15.5 6.71083 13.7057 8.5 11.5 8.5C10.7977 8.5 10.1371 8.31862 9.56289 8"
           stroke="#E2E2E2" stroke-miterlimit="10" stroke-linecap="round"/>
     <path d="M7.68667 6.03711L0.5 13.558V15.4999H3L4 14.4999V13.4999H5L5.5 12.8604V11.8139L7 11.4999L7.5 10.4999V9.4999L8.5 9.37199L9.51 8.2592"
           stroke="#E2E2E2" stroke-miterlimit="10"/>
 </g>
</svg>